<svg width="150" height="150" viewBox="0 0 150 150" fill="none" xmlns="http://www.w3.org/2000/svg">
<path d="M20.8008 134.766L8.78906 0H140.918L128.906 134.766L74.707 150" fill="#E34F26"/>
<path d="M75 138.281L118.652 126.27L128.906 10.8398H75" fill="#EF652A"/>
<path d="M75 60.9375H53.0273L51.5625 43.9453H75V27.5391H33.3984L37.793 77.6367H75V60.9375ZM74.707 104.004L56.25 99.0234L55.0781 85.8398H38.6719L40.7227 111.914L74.707 121.289V104.004Z" fill="#EBEBEB"/>
<path d="M74.707 60.9375V77.6367H95.2148L93.1641 99.0234L74.707 104.004V121.289L108.691 111.914L113.379 60.9375H74.707ZM74.707 27.5391V43.9453H114.844L116.309 27.5391H74.707Z" fill="white"/>
</svg>
