<svg width="150" height="150" viewBox="0 0 150 150" fill="none" xmlns="http://www.w3.org/2000/svg">
<g clip-path="url(#clip0_107_14)">
<path d="M0 0H150V150H0V0Z" fill="#F7DF1E"/>
<path d="M39.4406 125.351L50.9192 118.404C53.134 122.33 55.1485 125.653 59.9807 125.653C64.6125 125.653 67.5334 123.841 67.5334 116.793V68.8648H81.6293V116.993C81.6293 131.592 73.0711 138.238 60.5848 138.238C49.3084 138.238 42.7629 132.398 39.4401 125.35M89.2858 123.84L100.763 117.195C103.785 122.129 107.712 125.754 114.659 125.754C120.5 125.754 124.224 122.834 124.224 118.806C124.224 113.973 120.398 112.261 113.954 109.443L110.43 107.931C100.26 103.603 93.5145 98.1652 93.5145 86.6867C93.5145 76.1141 101.569 68.0586 114.156 68.0586C123.117 68.0586 129.561 71.1805 134.193 79.3361L123.217 86.385C120.8 82.0555 118.183 80.3439 114.155 80.3439C110.027 80.3439 107.409 82.9619 107.409 86.385C107.409 90.6137 110.027 92.3264 116.068 94.9443L119.592 96.4543C131.574 101.59 138.32 106.825 138.32 118.605C138.32 131.293 128.352 138.24 114.96 138.24C101.871 138.24 93.4131 131.997 89.2852 123.841" fill="black"/>
</g>
<defs>
<clipPath id="clip0_107_14">
<rect width="150" height="150" fill="white"/>
</clipPath>
</defs>
</svg>
