<svg width="534" height="534" viewBox="0 0 534 534" fill="none" xmlns="http://www.w3.org/2000/svg">
<path d="M267 0.333008C194.578 0.333008 185.496 0.640248 157.053 1.93748C128.67 3.23234 109.285 7.7409 92.3223 14.3319C74.7867 21.1467 59.9153 30.2655 45.0908 45.09C30.2655 59.9145 21.1467 74.7875 14.3327 92.3231C7.74011 109.285 3.23313 128.67 1.93669 157.053C0.639454 185.496 0.333008 194.578 0.333008 267C0.333008 339.422 0.639454 348.503 1.93669 376.946C3.23313 405.33 7.74011 424.715 14.3327 441.676C21.1475 459.212 30.2663 474.083 45.0908 488.909C59.9161 503.734 74.7867 512.853 92.3223 519.668C109.285 526.258 128.67 530.766 157.053 532.062C185.496 533.359 194.578 533.666 267 533.666C339.422 533.666 348.503 533.359 376.946 532.062C405.33 530.767 424.715 526.258 441.676 519.668C459.212 512.853 474.083 503.734 488.909 488.909C503.734 474.083 512.853 459.212 519.668 441.676C526.258 424.715 530.767 405.33 532.062 376.946C533.359 348.503 533.666 339.422 533.666 267C533.666 194.578 533.359 185.496 532.062 157.053C530.767 128.67 526.258 109.285 519.668 92.3231C512.853 74.7875 503.734 59.9145 488.909 45.09C474.083 30.2655 459.212 21.1467 441.676 14.3319C424.715 7.7409 405.33 3.23234 376.946 1.93748C348.503 0.640248 339.422 0.333008 267 0.333008ZM267 48.3807C338.202 48.3807 346.637 48.653 374.756 49.936C400.756 51.1213 414.876 55.4655 424.272 59.1174C436.72 63.9555 445.603 69.7335 454.934 79.065C464.266 88.3965 470.044 97.2803 474.882 109.727C478.534 119.124 482.878 133.244 484.063 159.243C485.346 187.363 485.619 195.797 485.619 267C485.619 338.202 485.346 346.637 484.063 374.756C482.878 400.756 478.534 414.876 474.882 424.272C470.044 436.72 464.266 445.603 454.934 454.934C445.603 464.266 436.719 470.044 424.272 474.882C414.876 478.534 400.755 482.878 374.756 484.063C346.641 485.346 338.208 485.619 267 485.619C195.792 485.619 187.359 485.346 159.243 484.063C133.243 482.878 119.124 478.534 109.728 474.882C97.2795 470.044 88.3965 464.266 79.0658 454.934C69.7343 445.603 63.9555 436.719 59.1174 424.272C55.4655 414.876 51.122 400.755 49.936 374.756C48.653 346.637 48.3807 338.202 48.3807 267C48.3807 195.797 48.653 187.363 49.936 159.243C51.122 133.243 55.4655 119.124 59.1174 109.728C63.9555 97.2795 69.7343 88.3965 79.065 79.0658C88.3965 69.7335 97.2803 63.9555 109.727 59.1174C119.124 55.4655 133.244 51.1213 159.243 49.936C187.363 48.653 195.798 48.3807 267 48.3807Z" fill="#fff"/>
<path d="M267 355.888C217.907 355.888 178.11 316.092 178.11 267C178.11 217.907 217.907 178.11 267 178.11C316.092 178.11 355.888 217.907 355.888 267C355.888 316.092 316.092 355.888 267 355.888ZM267 130.062C191.371 130.062 130.062 191.371 130.062 267C130.062 342.628 191.371 403.936 267 403.936C342.628 403.936 403.936 342.628 403.936 267C403.936 191.371 342.628 130.062 267 130.062ZM441.347 124.652C441.347 142.326 427.02 156.652 409.347 156.652C391.674 156.652 377.347 142.326 377.347 124.652C377.347 106.979 391.674 92.6514 409.347 92.6514C427.02 92.6514 441.347 106.979 441.347 124.652Z" fill="#fff"/>
</svg>
